<?xml version="1.0" encoding="utf-8"?>
<!-- Generator: Adobe Illustrator 25.2.1, SVG Export Plug-In . SVG Version: 6.00 Build 0)  -->
<svg version="1.1" id="レイヤー_1" xmlns="http://www.w3.org/2000/svg" xmlns:xlink="http://www.w3.org/1999/xlink" x="0px"
	 y="0px" viewBox="0 0 156.1 42" style="enable-background:new 0 0 156.1 42;" xml:space="preserve">
<style type="text/css">
	.st0{fill-rule:evenodd;clip-rule:evenodd;}
</style>
<g>
	<path d="M155.6,32.4c-0.5-1.1-1-2.5-0.8-5.5c0,0,0-0.1,0-0.1c0,0-0.1,0-0.1,0.1c-1,1.3-1.9,1.9-2.5,1.9c-1,0-1.8-0.4-2.9-1.6
		c-0.2-0.2-0.2-0.3,0-0.5c0.4-0.3,0.7-0.5,1-0.5c0.1,0,0.2,0,0.3,0.1c0.5,0.2,0.9,0.3,1.4,0.3c1.4,0,2.4-1,2.4-1.9
		c0-0.6-0.2-1-0.3-1.2c-0.3-0.5-0.8-0.8-1.6-1.2c-1.7-0.7-3.5-1.7-4.4-2.6c-0.6-0.6-1.1-0.8-1.4-0.8c-0.1,0-0.1,0-0.2,0l0,0
		c-0.4,0.1-1,0.2-1.5,0.3c-0.1,0-0.1,0.1-0.1,0.1c0,0,0,0.1,0,0.2c0.1,0.2,0.3,0.5,0.3,0.6c0.1,0.2,0.2,0.3,0.2,0.4
		c0.2,0.4,0.2,0.7-0.2,1c0,0-0.1,0.1-0.5,0.3l0,0c-0.2,0.1-0.4,0-0.5-0.2c-0.1-0.2-0.2-0.3-0.4-0.5c-0.8-1.1-1.5-2.1-2-2.7l-0.2-0.3
		c-0.1-0.2-0.1-0.3,0.2-0.3l0.3,0c0.5,0,1.4-0.1,2-0.1c1.4,0,3,0,3.9,0.1c0.2,0,0.4,0,0.5,0.2l0,0c0.4,0.5,0.9,1,1.4,1.4
		c0.6,0.4,1.2,0.6,1.8,0.6c0.8,0,1.5-0.2,2-0.5c0.5-0.3,1-0.7,1.3-1.2c0.6-0.9,1-2.2,1-3.5c0-1-0.2-2.1-0.7-3
		c-0.4-0.8-1-1.6-1.7-2.3c-0.6-0.6-1.3-1.1-1.9-1.5c-0.7-0.4-1.1-0.5-1.2-0.5c-0.1,0-0.4,0.1-0.9,0.4c-0.4,0.3-0.7,0.6-0.9,0.9l0,0
		C148.5,9,148.4,9,148.2,9l0,0c-0.6,0-1.2,0-1.9,0c-0.3,0-0.6,0-1,0h-0.1c-0.2,0-0.3-0.1-0.2-0.3l0-1c0-0.1,0.1-0.3,0.2-0.3l0,0
		c1.1-0.2,1.8-0.5,1.8-1.1c0-0.8-1.5-1.3-3.2-1.9c-0.2-0.1-0.4-0.1-0.6-0.2c-1.1-0.4-2.9-0.8-4.2-0.8c-0.6,0-1.3,0.1-1.7,0.4
		c-0.5,0.4-1,0.7-1.6,1c-0.6,0.2-1.3,0.4-2,0.4h-0.2c-0.1,0-0.1,0-0.2,0.1c0,0,0,0.1,0,0.2c0.2,1.1,0.7,1.8,1.4,2.1
		c0.7,0.2,0.8,0.8,0.8,1.6c0,0.3-0.3,0.5-0.5,0.5c-1.1,0.1-2,0.2-2.4,0.3c-0.1,0-0.2,0-0.3,0c-0.4,0-0.8-0.2-1-0.6l0,0
		c0-0.1-0.3-0.5-1-0.9c-0.5-0.3-1.4-0.7-2.8-0.9c-0.1,0-0.2,0-0.3,0c-0.1,0-0.2,0.1-0.2,0.2c-0.2,0.3-0.4,0.6-0.7,0.9
		c-0.2,0.3-0.5,0.5-0.6,0.7c-0.1,0.1-0.1,0.2-0.1,0.3c0,0,0.1,0.1,0.1,0.2c0.6,0.5,0.9,1.3,1,2.1c0,0.7-0.1,1.4-0.5,2.1
		c-0.3,0.7-0.8,1.3-1.4,1.9c0,0-0.1,0.1-0.1,0.1c0,0,0,0.1-0.1,0.1c-0.3,1.3,0,2.7,0.8,3.6c0.7,0.9,1.7,1.3,2.9,1.3
		c0.6,0,1.2-0.2,1.7-0.7c0.5-0.4,0.8-1,0.9-1.7c0-0.2,0.1-0.3,0.3-0.3h0h0c0.1,0,0.2,0,0.2,0c0.5,0,0.9,0,1.1,0.4
		c0.1,0.1,0.1,0.3-0.1,0.6l0,0c-0.4,0.6-1.4,1.4-2.5,2.1c-0.8,0.5-2.2,1.3-3.1,1.3c-0.4,0-0.7-0.1-1-0.3c-0.1,0-0.3-0.1-0.3-0.1
		c-0.2,0-0.7,0.8-0.7,2c0,0.5,0.2,1,0.6,1.3c0.4,0.4,1,0.6,1.7,0.6c0.6,0,1.5-0.3,2.5-0.9c0.9-0.5,2-1.2,3.1-2.1
		c2-1.5,3.8-3.4,4.4-4.4l0,0c0.1-0.2,0.3-0.3,0.5-0.2c0.3,0.1,0.5,0.3,0.5,0.5c0.1,0.2,0.1,0.5-0.3,0.9l0,0
		c-1.7,1.9-3.8,3.8-5.9,5.2c-1.9,1.3-3.6,2.1-4.5,2.1c-0.7,0-1.3-0.1-1.8-0.3c0,0-0.1,0-0.1,0c0,0-0.1,0.1-0.1,0.1
		c-0.1,0.2-0.2,0.5-0.3,0.7c-0.1,0.5-0.1,1,0.1,1.5c0.2,0.7,0.8,1.4,2.4,1.4c0.8,0,1.8-0.3,2.9-0.9c1-0.5,2.2-1.2,3.3-2.1
		c2.3-1.7,4.1-3.6,4.7-4.4l0.2-0.2c0.1-0.1,0.2-0.2,0.3,0l0.2,0.2c0.1,0.1,0.2,0.4,0.3,0.6c0,0.2,0,0.3-0.1,0.4
		c-1,1.4-3.1,3.3-5.3,4.9c-1.5,1.1-4.4,3-6.2,3c-0.7,0-1.3-0.1-1.8-0.4c-0.3-0.1-0.5-0.3-0.7-0.5c0,0-0.1-0.1-0.1,0
		c-0.1,0-0.1,0.1-0.1,0.1c-0.5,0.8-0.7,2.1-0.2,3.2c0.3,0.7,1,1.6,2.6,1.6c1.3,0,2.8-0.5,4.5-1.6l0,0c0.2-0.1,0.4-0.2,0.6-0.1
		c1.1,0.5,2,1.4,2.7,2.5l0,0.1c0.4,0.8,0.7,1.2,1.2,1.5c0.5,0.3,1.3,0.4,2.9,0.4c1.5,0,3-0.5,4.3-1.3c0.7-0.4,1.2-0.9,1.7-1.5
		c0.5-0.6,0.8-1.3,1-2c0.1-0.3,0.3-0.5,0.6-0.5c0.2,0,0.4,0.1,0.6,0.4c0.6,1,1.5,1.9,2.4,2.5c1,0.6,2.1,1,3.2,1c1,0,1.7-0.3,2.2-0.9
		c0.5-0.6,0.7-1.5,0.7-2.7C156.1,33.6,155.9,33,155.6,32.4 M146.2,13.1c1,0,2.1,0,2.8,0.1l0.1,0c0.2,0,0.3,0.1,0.3,0.3l0,0.1
		c-0.1,0.7-0.4,1.3-0.9,1.9l-0.1,0.1c-0.1,0.2-0.3,0.1-0.4,0l0,0c-0.7-0.8-1.3-1.3-1.9-1.7l-0.7-0.5l0,0c-0.1-0.1-0.1-0.2,0.1-0.2
		H146.2z M134.1,15.7c-0.1,0-0.2,0-0.3,0c-0.5,0-0.7-0.2-1-0.5c0,0-0.1-0.1-0.1-0.1c-0.4-0.3-0.4-0.6-0.4-0.8
		c0.1-0.2,0.3-0.5,0.9-0.6h0c2.2-0.3,6.6-0.6,10.7-0.7l0.4,0h0c0.2,0,0.3,0,0.2,0.2l-0.3,0.4c-0.1,0.1-0.1,0.2-0.2,0.3
		c-0.3,0.4-0.6,0.8-1,1.1c-0.1,0.1-0.3,0.2-0.5,0.1c-0.2,0-0.3,0-0.5,0C139.8,15.1,135.8,15.5,134.1,15.7 M139.4,29.8
		c-0.2,0.8-0.5,1.5-0.9,2.1c-0.4,0.7-1,1.1-1.6,1.2c-0.2,0.1-0.4,0.1-0.6,0.1c-0.2,0-0.4,0-0.7-0.1l-0.3-0.1h0
		c-0.2,0-0.3-0.1-0.1-0.3l0.3-0.3c0.7-0.6,1.4-1.2,2-1.8c0.5-0.5,1-0.9,1.4-1.3l0.6-0.5l0,0c0.1-0.1,0.3-0.1,0.2,0.1h0L139.4,29.8z"
		/>
	<path d="M78.8,26.2c-1.5-1.3-3.2-2.2-4.3-2.4c0,0,0,0,0,0c-0.5,0-1.4,0.7-1.8,1.1c0,0,0,0,0,0c-0.2,0.2-0.5,0.2-0.8,0.2h0
		c-1.1-0.1-2.5-0.2-4.1-0.2c-2.9,0-6,0.2-8.2,0.5l0,0c-0.2,0-0.4,0-0.6-0.1c-0.2-0.2-0.5-0.3-0.6-0.4c-0.5-0.3-0.8-0.6-1.2-0.6
		c-0.2,0-0.4,0.1-0.7,0.2h0c-0.6,0.3-2,1.1-3.1,2.4c-0.9,0.9-1.9,2.4-1.6,3.8c0.1,0.3,0.5,0.6,1,0.7l0,0c0.2,0,0.3,0.1,0.4,0.2
		c0.5,1,0.9,2.5,1.3,3.8c0.2,0.9,0.5,1.7,0.7,2.3v0c0.2,0.5,0.6,0.9,1.1,1.1c0.5,0.3,1.2,0.4,1.9,0.4c1.6,0,3-0.7,3.8-1.8l0,0
		c0,0,0.1-0.1,0.2-0.1l0,0c1.2-0.2,2.7-0.2,3.8-0.2c1.6,0,3.2,0.1,3.7,0.2c0.8,0.2,1.5,0.5,2.1,1c0.5,0.5,1.6,0.8,3.2,0.8
		c0,0,0.1,0,0.1,0c1.2,0,2.3-0.6,2.8-1.4c0.4-0.7,0.4-1.5-0.1-2.4l0,0c-0.1-0.2-0.1-0.5,0-0.7c0.1-0.4,0.3-0.7,0.4-1
		c0.2-0.6,0.4-1.1,0.6-1.7l0,0c0.1-0.3,0.2-0.4,0.5-0.5h0c0.6-0.2,1-0.4,1.4-0.8c0.3-0.3,0.6-0.7,0.6-1.3c0-0.1-0.1-0.5-0.7-1.3
		C80.1,27.4,79.5,26.8,78.8,26.2 M70.8,29.7c0,0-0.3,2.1-0.4,2.6c0,0.3-0.2,0.3-0.5,0.3h0c-0.5,0-1.4-0.1-2.4-0.1
		c-2,0-4.6,0.1-5.6,0.2c-0.5,0.1-0.7-0.1-0.7-0.4v0c0-0.5-0.1-1.9-0.3-2.3l0,0c-0.1-0.3-0.1-0.5,0.2-0.6c1.2-0.2,3.3-0.4,5.5-0.4
		c1.5,0,2.8,0.1,3.8,0.3C70.7,29.3,70.8,29.4,70.8,29.7"/>
	<path d="M81.6,17.7c0,0-0.1,0-0.2,0c0,0-0.1,0.1-0.1,0.1c-0.4,0.7-1.2,1.2-2.5,1.2c-0.3,0-0.7,0-1-0.1l0,0c-1.8-0.4-4-0.6-6.5-0.7
		h0c-0.4,0-0.4-0.2-0.4-0.6c0-0.4,0-0.8,0-1.2c0-0.5,0.2-0.6,0.6-0.5c1.5,0.1,2.7,0.2,3.7,0.4c0.6,0.1,0.9,0.3,1.2,0.5
		c0.1,0.1,0.2,0.1,0.3,0.2l0,0c0.7,0.4,1.3,0.6,1.9,0.6c0.8,0,1.4-0.3,1.7-0.6c0.4-0.4,0.6-0.8,0.7-1.3c0-0.7-0.2-1.6-0.6-2.5
		c-0.4-0.9-1-1.8-1.6-2.4C78,9.9,77.4,9.5,77,9.5h0h0c-0.4,0-1.1,0.6-1.7,1.2c-0.2,0.2-0.2,0.1-0.4,0.1v0c-0.8-0.1-1.9-0.2-3.1-0.3
		c-0.3,0-0.4-0.2-0.3-0.5c0.1-0.6,0.1-1,0.1-1l0,0h0c0-0.2,0-0.3,0.2-0.3l0.1,0c0.6-0.1,1.4-0.4,1.4-1c0-0.4-0.2-0.8-0.6-1.3
		c-0.4-0.4-1-0.9-1.8-1.3c-1.4-0.8-3.2-1.4-4.7-1.6l0,0c-0.1,0-0.2,0-0.3-0.1c-0.2,0-0.4-0.1-0.6-0.1c-0.4,0-0.8,0.3-1,0.5
		c-0.7,0.7-2.2,1.9-4.2,1.9c-0.2,0-0.4,0-0.6,0c-0.1,0-0.1,0-0.2,0.1c0,0.1-0.1,0.2-0.1,0.2c0,0.5,0.1,0.9,0.3,1.4
		c0.3,0.6,0.8,1.1,1.3,1.3c0.6,0.2,0.7,0.5,0.7,0.9c0,0,0,0.3,0,0.8l0,0c0,0.3,0,0.4-0.3,0.4c-1.2,0.1-2.4,0.2-3.4,0.4
		c-0.5,0.1-0.9,0.1-1.2,0.1c-1,0-1.8-0.3-2.3-0.8c0,0-0.1-0.1-0.1-0.1c0,0-0.1,0-0.1,0c-0.7,0.3-1.2,0.8-1.6,1.5
		c-0.5,0.8-0.7,1.9-0.6,3c0.1,1.9,1.8,2.7,2.9,2.7c0.9,0,1.3-0.3,1.7-0.6c0.3-0.2,0.5-0.4,1-0.5h0c0,0,1.6-0.2,4-0.4l0.1,0h0
		c0.1,0,0.2,0.1,0.3,0.2l0,0.1c0,0.7,0.1,1.2,0.1,1.7c0,0.2-0.1,0.4-0.4,0.4c-2.5,0.2-4.7,0.5-5.9,0.7c-0.5,0.1-0.9,0.1-1.2,0.1h0
		c-0.2,0-0.3,0-0.5,0c-1.2,0-2.2-0.4-2.7-1.1c0-0.1-0.1-0.1-0.2-0.1c-0.1,0-0.1,0-0.2,0.1c-1.4,0.9-2,2.2-1.8,4v0
		c0.1,0.8,0.5,1.5,1.1,2c0.6,0.5,1.2,0.7,1.9,0.7c0.7,0,1.1-0.2,1.7-0.5c0.7-0.3,1.5-0.7,3.3-1.1c1.7-0.3,5.2-0.9,9.7-0.9
		c4.1,0,8,0.4,11.8,1.3C79,24,79.6,24,80.1,24c1,0,1.8-0.3,2.4-0.8c0.5-0.6,0.6-1.3,0.7-1.8v0c0-0.9-0.1-1.8-0.5-2.5
		C82.4,18.4,82,18,81.6,17.7"/>
	<path d="M119,20.9c-0.5-0.8-0.9-1.2-1.4-1.6c-0.4-0.4-0.8-0.7-1.1-1.4l-0.2-0.4l0,0c-0.1-0.2-0.1-0.4,0.1-0.3l0.5,0.2
		c0.2,0.1,0.4,0.1,0.6,0.1c0.7,0,1.2-0.6,1.2-1.5c0-1.2-1.1-2.1-2.1-2.4l-0.1,0c-0.2,0-0.2-0.1-0.1-0.3l0.2-0.8
		c0.1-0.2,0.2-0.2,0.3-0.2l0.1,0c0.3,0.1,0.7,0.2,0.9,0.2c0.9,0,1.3-0.5,1.4-0.9c0.2-0.5,0.2-1.2,0-1.8c-0.2-0.7-0.7-1.4-1.3-1.9
		c-0.9-0.8-1.5-1.8-2.1-2.8c-0.2-0.3-0.4-0.6-0.6-1c-0.2-0.4-0.5-0.5-0.8-0.5c-0.4,0-0.9,0.4-1.5,1l-0.1,0.1l-0.2,0
		c-0.2,0-0.3,0-0.5,0c-1.1,0-2.7,0.1-4,0.2c-0.4,0-0.8,0-1.1,0.1h0c-0.2,0-0.4,0-0.6-0.2c-0.2-0.1-0.6-0.4-1-0.6l0,0c0,0,0,0,0,0
		c-0.1,0-0.3,0-0.8,0.6l-0.1,0.1c-0.1,0.1-0.3,0.1-0.4,0l0,0c0,0,0,0,0,0c0,0,0,0,0,0v0c-1.7-1.2-2.7-1.4-3.2-1.4
		c-0.1,0-0.2,0-0.2,0c-0.3,0.1-1.4,0.9-1.7,1.2l0,0l0,0c-0.3,0.3-0.6,0.6-1.3,0.6c-0.5,0-2.4,0.1-3.3,0.2c-0.3,0-0.4-0.1-0.6-0.2
		l0,0c-1-0.8-1.6-1.2-2.1-1.2c-0.2,0-0.9,0.3-2,1.2c-0.8,0.7-1.6,1.5-1.8,1.8l0,0c-0.4,0.4-0.2,1.2,0.3,2.3l0,0
		c0.3,0.5,0.3,0.9,0.3,1.2c0,0.1,0,0.2,0,0.2c0,0.2,0,1.1,0,2.9c0,2.6,0,6.9,0.1,7.5l0,0c0.1,0.4,0.3,0.7,0.6,0.9
		c0.3,0.2,0.6,0.3,1.1,0.3c0.8,0,1.5-0.3,1.6-0.4l0,0c0.4-0.4,1.1-0.6,2.4-0.8l0.1,0h0c0.2,0,0.3,0,0.3,0.2l0,1.3
		c0,0.3-0.1,0.3-0.3,0.4h0c-1.4,0.3-2.4,0.5-3.1,0.7l0,0c-0.3,0.1-0.6,0.1-0.9,0.1c-0.5,0-0.9-0.1-1.2-0.4c0,0-0.1-0.1-0.2-0.1
		c-0.1,0-0.1,0-0.2,0.1c-0.2,0.2-0.5,0.4-0.6,0.7c-0.3,0.5-0.4,1.2-0.3,1.9c0.1,0.7,0.4,1.3,0.9,1.6c0.5,0.4,1.1,0.5,1.4,0.5
		c0.5,0,0.8-0.2,1-0.3l0,0c0.3-0.3,1-0.6,3.2-1c0.3-0.1,0.4,0,0.4,0.3l0,1.1c0,0.3,0,0.8-0.9,1l0,0c-0.4,0.1-1.2,0.4-1.9,0.6
		c-0.4,0.1-0.7,0.3-0.9,0.3c-0.1,0-0.3,0.1-0.4,0.1c-0.4,0-0.9-0.2-1.3-0.7c0,0-0.1,0-0.1,0c-0.1,0-0.1,0-0.1,0c0,0-0.1,0.1-0.1,0.1
		l0,0c-0.7,0.7-1.4,2-1.3,3.3v0c0,1,0.8,2.3,1.9,3.4c0.6,0.6,1.2,1,1.8,1.3c0.7,0.3,1.3,0.5,1.9,0.5c0,0,0.1,0,0.1,0
		c1.1-0.1,1.6-0.9,2.2-1.7c0.2-0.3,0.5-0.7,0.8-1c0.5-0.6,1.7-1.5,2.6-2.2c0.2-0.1,0.4-0.1,0.5,0.1c0.9,1.3,2,3.2,2.4,4.5
		c0.2,0.6,0.5,1,0.9,1.3c0.4,0.2,0.9,0.3,1.6,0.3c1.4,0,2.7-0.4,3.7-1.2c1.1-0.8,1.8-1.9,2.3-3.2l0.1-0.4c0-0.1,0.1-0.2,0.2,0
		l0.3,0.4c0.3,0.5,0.5,0.9,0.7,1.4c0.3,0.7,0.6,1.3,1,1.3c1.8,0,2.9-1,3.6-1.9c0.8-1,1.3-2.4,1.3-3.6c0-1.4,0-2.8,0-4.5
		c0-1.2,0-2.4,0-3.8v-0.1v0c0-0.2,0-0.3,0.3-0.3l0.2,0c0.2,0,0.4,0.1,0.6,0.1c0.5,0,0.7-0.2,0.7-0.3C119.7,22.7,119.5,21.8,119,20.9
		L119,20.9z M95.1,17.6c0,0.2,0,0.2-0.2,0.3h0l-0.1,0c-0.5,0.1-0.8,0.1-1.1,0.2l-0.2,0l0,0c-0.2,0-0.3-0.1-0.3-0.2v0l0-0.1
		c0-0.2,0-0.7-0.1-1.4c0-0.2,0-0.5,0-0.7c0-0.2,0-0.3,0.2-0.3l0.1,0c0.1,0,0.2,0,0.3-0.1c0.3-0.1,0.6-0.1,0.9-0.2l0.1,0
		c0.1,0,0.3,0,0.3,0.2L95.1,17.6z M95.1,11.4c0,0.2-0.1,0.2-0.3,0.3h0l-0.1,0c-0.2,0-0.3,0-0.5,0.1c-0.3,0-0.5,0.1-0.7,0.1l-0.2,0
		c-0.2,0-0.2,0-0.2-0.2l0-0.2c0-0.4,0-0.8,0-1.1c0-0.2,0-0.4,0-0.5c0-0.2,0.1-0.3,0.3-0.3c0.2,0,0.6-0.1,1.3-0.2l0.1,0
		c0.2,0,0.3,0,0.3,0.2L95.1,11.4z M105,12.7l0-0.1c0-0.4,0.1-0.6,0.1-0.6l0-0.1l0,0c0.1-0.2,0.2-0.5,0.5-0.5c0.2,0,0.3,0.1,0.4,0.2
		c0.1,0.1,0.2,0.2,0.5,0.2c0,0,0.1,0,0.1,0c0.5-0.1,0.6-0.4,0.9-0.9c0,0,0-0.1,0.1-0.1c0.1-0.2,0.2-0.3,0.4-0.3
		c0.4-0.1,1.2-0.2,2-0.2c0.3,0,0.5,0,0.8,0c0.2,0,0.4,0.1,0.3,0.3l0,0.1c0,0.6-0.4,1.2-0.6,1.7c0,0,0,0.1,0,0.1
		c-0.1,0.2-0.2,0.3-0.4,0.3h0c-1.4,0-3.9,0.2-4.5,0.4l-0.1,0C105.1,13.1,105,12.9,105,12.7L105,12.7z M99.1,10.9c0-0.3,0-0.5,0-0.8
		c0-0.3,0-0.7,0-0.9V9.2c0-0.2,0.1-0.2,0.2-0.2l0.1,0c0.5,0,0.9,0,1.3,0h0.1c0.2,0,0.3,0,0.3,0.2L101,11c0,0.2-0.1,0.3-0.2,0.3
		l-0.1,0c-0.2,0-0.5,0-0.7,0c-0.2,0-0.4,0-0.6,0l-0.2,0c-0.2,0-0.2,0-0.2-0.2L99.1,10.9z M99,17c0-0.3,0-0.7,0-1c0-0.3,0-0.6,0-1V15
		c0-0.2,0.1-0.3,0.2-0.3l0.1,0c0.4,0,0.8,0,1.2,0h0.1c0.1,0,0.3,0,0.3,0.3l-0.1,2.1v0c0,0.2-0.1,0.3-0.3,0.3h-0.1
		c-0.2,0-0.3,0-0.5,0c-0.2,0-0.4,0-0.6,0h-0.1C99.1,17.4,99,17.3,99,17L99,17z M99,21.1c0-0.2,0.1-0.3,0.3-0.3l0.1,0
		c0.3,0,0.6,0,0.8,0c0.1,0,0.2,0,0.2,0c0.2,0,0.3,0.1,0.3,0.2l0,0.1c0.1,0.3,0.2,0.5,0.3,0.7l0.1,0.3c0.1,0.2,0,0.2-0.1,0.2l-0.3,0
		c-0.5,0-0.9,0.1-1.3,0.1l-0.1,0c-0.2,0-0.3-0.1-0.3-0.3V21.1z M104.5,29.9c0,0.8,0,1.5,0,2l0,0.1c0,0.2-0.2,0.2-0.3,0.2
		c-0.6,0-1.1-0.1-2.2-0.5l-0.3-0.1h0c-0.2-0.1-0.2-0.2-0.1-0.3l0.3-0.2c0.8-0.6,1.5-1.1,2.1-1.5l0.3-0.2c0.1-0.1,0.2-0.1,0.2,0.1
		V29.9z M104.5,28.6c0,0.2-0.2,0.2-0.3,0.1l-0.3-0.3c-0.5-0.5-1.6-1.1-2.5-1.4l0,0c-0.1,0-0.2-0.1-0.3-0.1c-0.4,0-0.9,0.2-1.5,0.5
		l-0.2,0.1c-0.2,0.1-0.3,0-0.3-0.2l0-0.1c0-0.1,0-0.3-0.1-0.7l0-0.1c0-0.2,0-0.3,0.2-0.3l0.1,0c0.9-0.1,1.8-0.3,2.2-0.6
		c0.3-0.3,0.7-0.9,1.1-1.6l0.1-0.1c0.1-0.1,0.2-0.2,0.3-0.1l0.1,0.1c0.5,0.3,1,0.4,1.2,0.5l0,0c0.1,0,0.2,0.1,0.2,0.3v0l0,0.1
		c0,0,0,1.8,0,3.6V28.6z M110,18.3L110,18.3c-1,0-2.1,0.2-3,0.3c-0.7,0.1-1.2,0.2-1.6,0.2c-0.2,0-0.5,0-0.6-0.2
		c-0.1-0.1-0.1-0.2-0.1-0.4c0-0.2,0-0.4,0-0.6c0-0.2,0.1-0.4,0.3-0.5c0.8-0.2,3.3-0.7,5.4-0.7c0.3,0,0.6,0,0.9,0l0.3,0
		c0.2,0,0.5,0.1,0.3,0.3l-0.3,0.3c0,0-0.4,0.4-0.8,0.9v0C110.4,18.3,110.3,18.3,110,18.3 M112.3,29.6c-0.2,0.1-0.4,0.2-0.7,0.2
		c-0.7,0-1-0.5-1-0.9v-4.9c0-0.4,0.2-0.6,0.6-0.6c0.1,0,0.5,0,0.7,0c0.2,0,0.3,0,0.4,0.1c0.1,0.1,0.2,0.3,0.2,0.4c0,0,0,0.1,0,0.1
		c0,0.4,0.1,3.4,0.1,5.1C112.5,29.2,112.5,29.4,112.3,29.6"/>
	<path class="st0" d="M16.7,2.4c0.4-0.3,0.8-0.6,1.1-1C18.1,1,19,0.1,19.1,0.1c0,0-0.7-0.1-1.3,0.1c-0.5,0.2-1.2,0.7-1.5,1.2
		c-0.3,0.4-0.7,1.2-0.7,1.2S16.3,2.6,16.7,2.4"/>
	<path class="st0" d="M20.3,1.5c0.4-0.3,0.9-0.9,1.1-1c0.2-0.2,0.5-0.4,0.5-0.4S21.5,0,21.2,0c-0.3,0.1-0.9,0.2-1.5,0.7
		C19,1.3,18.4,2,18.4,2C19.2,2,19.9,1.8,20.3,1.5"/>
	<path class="st0" d="M22.4,1.8c0.5-0.1,0.9-0.3,1.2-0.6c0.3-0.2,0.8-0.5,1-0.6c0.1-0.1,0.3-0.1,0.3-0.1s-0.3-0.4-1-0.3
		c-0.7,0-1.2,0.3-1.5,0.6c-0.3,0.3-1,0.9-1.1,1C21.3,1.7,21.9,1.9,22.4,1.8"/>
	<path class="st0" d="M25,2.3c0.5,0,0.8-0.1,1.1-0.3c0.3-0.2,1.5-0.7,1.6-0.8c0.2,0,0.3-0.1,0.3-0.1s-0.5-0.3-1-0.4
		c-0.5,0-1.1,0-1.7,0.4C24.8,1.6,24.3,2,24,2.1C24,2.1,24.5,2.3,25,2.3"/>
	<path class="st0" d="M26.8,2.7c0,0,0.4,0.4,1,0.5c0.6,0.1,1.2,0.1,1.6-0.1c0.5-0.2,1.3-0.5,1.4-0.5c0,0-0.8-0.7-1.6-0.7
		c-0.8,0-1.2,0.1-1.6,0.3C27.2,2.5,26.8,2.7,26.8,2.7"/>
	<path class="st0" d="M29.4,3.9c0,0,0.6,0.6,1.4,0.8C31.5,4.9,32,5,32.6,4.9c0.5-0.1,1.4-0.4,1.6-0.2c0,0-0.6-0.7-1.5-1
		c-0.9-0.3-1.5-0.1-1.9,0C30.3,3.7,29.6,3.9,29.4,3.9"/>
	<path class="st0" d="M32.1,5.8c0,0,0.4,0.5,1,0.8c0.6,0.3,1.4,0.4,1.8,0.4c0.5,0,1.3-0.1,1.5,0c0,0-0.3-0.8-0.9-1
		c-0.6-0.3-1.1-0.4-1.6-0.3C33.5,5.6,32.6,5.8,32.1,5.8"/>
	<path class="st0" d="M34.1,7.7c0,0,0.6,1,1.2,1.4c0.6,0.4,1.5,0.5,2,0.6c0.6,0.1,1.4,0.2,1.4,0.2s-0.1-0.4-0.6-1
		c-0.5-0.6-1.3-0.9-1.9-1.1C35.7,7.7,34.5,7.7,34.1,7.7"/>
	<path class="st0" d="M35.9,10.2c0,0,0.6,1.4,1.2,2.1c0.7,0.6,1.4,0.9,2,1.1c0.6,0.2,1.7,0.9,1.8,1c0,0,0-0.9-0.4-1.7
		c-0.4-0.8-1.2-1.5-2.1-1.9C37.7,10.5,36.2,10.4,35.9,10.2"/>
	<path class="st0" d="M40.1,14.7c-0.6-0.4-2.1-0.9-2.5-1.2c0,0,0.2,1.7,1.2,2.9c0.9,1.2,1.8,1.8,2.2,2.2c0.4,0.4,0.8,1,0.8,1
		s0.4-0.9,0.1-2.3C41.6,15.9,40.8,15.2,40.1,14.7"/>
	<path class="st0" d="M38.4,17.4c0,0-0.1,2.2,0.1,3.3c0.3,1.2,1.4,3.3,1.6,3.8c0.3,0.7,0.6,2.2,0.6,2.2s0.6-0.9,0.9-2.4
		c0.3-1.4,0.1-3.2-0.7-4.4C40.2,18.7,38.6,17.7,38.4,17.4"/>
	<path class="st0" d="M38.3,22.4c0,0-0.7,1.3-0.9,2.3c-0.2,1.2-0.1,2.4,0.1,3c0.2,0.7,0.5,1.9,0.6,2.6c0.1,0.6-0.1,2.3-0.1,2.3
		s0.7-0.7,1.3-1.5c0.6-0.9,0.8-1.7,0.8-3.3c0-1.6-0.6-2.8-1-3.6C38.8,23.5,38.3,22.4,38.3,22.4"/>
	<path class="st0" d="M36.6,27.2c0,0-1,1.1-1.5,2.1c-0.5,0.9-0.8,1.8-0.9,2.6c-0.1,0.8-0.1,3-0.3,3.8c-0.2,0.9-0.8,2.2-0.8,2.2
		s0.5-0.2,0.8-0.5c0.4-0.2,0.9-0.5,1.6-1.3c0.8-0.7,1.3-1.7,1.7-3.2c0.4-1.5-0.1-3.1-0.2-3.7C36.9,28.7,36.6,27.2,36.6,27.2"/>
	<path class="st0" d="M33.2,33.3c0-0.5-0.1-1.3-0.1-1.3s-0.4,0.4-1,0.9c-0.6,0.5-1.4,0.8-2,1.3c-0.5,0.5-1.5,1.8-1.8,2.4
		c-0.3,0.7-1.3,2.2-1.9,3c-0.5,0.6-1.8,1.7-1.8,1.7s2.8,0.1,5-0.9c1.5-0.7,2.5-1.9,3-3.4C33.2,35.4,33.3,34,33.2,33.3"/>
	<path class="st0" d="M27.4,36.2c0.3-0.5,1.1-1.6,1.1-1.6s-2,0.4-2.9,0.6c-0.9,0.3-2.2,0.9-3,1.4c-0.7,0.4-1.9,1.4-2.5,2.1
		c-0.6,0.7-1.9,1.7-2.5,2c-0.6,0.3-1.5,0.6-1.5,0.6C18,42.1,20,42,21,41.8c1.1-0.2,2.4-0.7,3.8-2C26.3,38.5,27.1,36.7,27.4,36.2"/>
	<path class="st0" d="M19.7,37.6c0.5-0.4,1.5-1.2,1.5-1.2s-0.9-0.5-2.7-0.5c-1.8,0-3.5,0.4-4.6,1c-1.2,0.5-2.3,1.2-3.1,1.3
		c-0.9,0.2-1.8,0.1-1.8,0.1s0.7,0.8,1.5,1.3c0.8,0.5,2.2,1.2,3.6,1.2c1.4,0,2.5-0.4,3.3-1C18,39.2,19.2,38.1,19.7,37.6"/>
	<path class="st0" d="M13.3,3.4c0.4-0.1,0.9-0.5,1.2-0.9c0.3-0.4,1.1-1.8,1.2-1.9c0,0-0.9,0.1-1.3,0.4c-0.5,0.3-1,0.9-1.2,1.4
		c-0.2,0.3-0.6,1.3-0.6,1.3S13.1,3.5,13.3,3.4"/>
	<path class="st0" d="M11.9,3.1c0.2-0.4,0.9-1.5,0.9-1.5s-0.9,0-1.5,0.5c-0.6,0.5-0.9,1.1-1.1,1.5C10,4,9.9,5,9.8,5.2
		c0,0,0.7-0.3,1.2-0.8C11.5,3.9,11.7,3.5,11.9,3.1"/>
	<path class="st0" d="M8.5,6.1C9,5.5,9.1,4.9,9.2,4.4c0.2-0.6,0.5-1.5,0.5-1.5C9,3,8.3,3.4,8,4C7.6,4.7,7.4,5.4,7.4,5.7
		C7.4,6.1,7.4,7,7.4,7S8,6.7,8.5,6.1"/>
	<path class="st0" d="M5.4,9.6c0,0,0.8-0.8,1.1-1.7C6.7,7,6.7,6.1,6.6,5.8c0-0.4,0.1-1,0.1-1S6,5.2,5.5,6C5.1,6.8,5,7.9,5,8.3
		C5.1,8.7,5.4,9.6,5.4,9.6"/>
	<path class="st0" d="M4.2,12.2c0,0,0.4-0.7,0.5-1.3c0.1-0.6-0.2-1.7-0.3-2.1C4.3,8.2,4.2,7.4,4.2,7.4C4,7.7,3.6,8,3.4,8.8
		c-0.2,0.8,0,1.7,0.2,2.3S4.2,12.2,4.2,12.2"/>
	<path class="st0" d="M2.7,14.9c0.2,0.3,0.6,1,0.6,1s0.3-0.8,0.4-1.3c0.1-0.8-0.1-1.4-0.3-1.9c-0.1-0.5-0.4-1.1-0.5-1.5
		c-0.1-0.4-0.3-1.4-0.3-1.4c0,0.2-0.5,0.9-0.6,1.4c-0.1,0.5-0.2,1.1-0.1,1.9C2,13.8,2.5,14.5,2.7,14.9"/>
	<path class="st0" d="M1.9,18.4C2.3,18.8,3,19.2,3,19.2s0-1.3-0.2-2.1c-0.2-0.7-0.8-1.6-1.1-2.1c-0.3-0.5-0.6-1.4-0.6-1.4
		s-0.2,0.8-0.4,1.2c-0.1,0.5-0.2,1.4,0,2C0.9,17.4,1.5,18.1,1.9,18.4"/>
	<path class="st0" d="M1.5,21.8C1.8,22,2.7,22.4,3,22.6c0.3,0.2,0.9,0.8,0.9,0.8s-0.2-1.5-0.5-2.2c-0.3-0.7-0.9-1.2-1.8-1.8
		c-0.9-0.5-1.4-1.5-1.4-1.5c-0.1,0.5-0.2,1.2,0,2.2C0.3,21.1,1.3,21.7,1.5,21.8"/>
	<path class="st0" d="M2.8,27.1c0.7,0.3,1.5,0.6,1.9,0.9c0.4,0.2,1,0.5,1,0.5s0.1-0.5-0.2-1.2c-0.2-0.8-0.8-1.8-1.2-2.3
		C3.9,24.4,2.8,23.5,2,23c-0.9-0.5-1.8-1.3-1.8-1.3s0,0.9,0,1.3c0,0.4,0.2,1.5,0.7,2.3C1.3,26.1,2,26.7,2.8,27.1"/>
	<path class="st0" d="M6,32.5c0.4,0,1.9-0.1,2.4-0.2c0.5,0,1.4,0.1,1.4,0.1s-0.4-0.4-0.6-0.7c-0.2-0.3-1.4-1.4-1.8-1.8
		c-0.4-0.4-1.4-0.8-2.2-1c-0.7-0.2-1.4-0.4-2-0.6c-0.6-0.2-1.6-0.8-1.6-0.8s0.1,1.3,0.4,2.1c0.3,0.8,1,1.7,1.8,2.2
		C4.6,32.6,5.6,32.5,6,32.5"/>
	<path class="st0" d="M9.6,37.4c0.9,0,1.5-0.3,2.1-0.6c0.6-0.3,1.8-0.9,2.3-1c0.6-0.2,1-0.2,1-0.2s-1.3-0.9-2.1-1.4
		c-0.8-0.4-2.4-0.8-3.4-0.9c-1,0-2.7,0.3-3.4,0.3c-1.1,0-2.2-0.4-2.2-0.4c0.3,0.6,1.4,2.3,2.4,3.1C7.3,37.1,8.5,37.4,9.6,37.4"/>
	<path class="st0" d="M12.7,7.7c0,0-1.5,0.4-2.7,1.6c-1.1,1.1-2.3,2.8-2.2,5.2c0,2.4,0.8,4.4,2.1,5.8c1.3,1.5,3.4,2.4,3.4,2.4v-3.7
		c0,0-0.6-0.2-1.4-1c-0.8-0.7-2-2.2-2.2-3.9c-0.2-1.7,0.1-3,0.8-4.3C11.2,8.8,12.7,7.7,12.7,7.7"/>
	<path class="st0" d="M30.1,18.1c-0.8,0.7-1.4,1-1.4,1v3.7c0,0,2.1-1,3.4-2.4c1.3-1.5,2.1-3.4,2.1-5.8c0-2.4-1.2-4.1-2.2-5.2
		c-1.2-1.2-2.7-1.6-2.7-1.6s1.5,1.1,2.2,2.3c0.7,1.2,1,2.6,0.8,4.3C32,16,30.8,17.4,30.1,18.1"/>
	<path class="st0" d="M21.3,15.3c0-0.2-0.1-0.5-0.4-0.5c-0.2,0-0.4,0.3-0.4,0.5c0.1,0.2,0.3,0.7,0.3,0.7S21.3,15.5,21.3,15.3"/>
	<path class="st0" d="M19.4,15.5c0-0.2-0.2-0.4-0.4-0.4c-0.2,0-0.4,0.3-0.3,0.5c0.1,0.2,0.4,0.6,0.4,0.6S19.4,15.7,19.4,15.5"/>
	<path class="st0" d="M17.6,15.8c-0.1-0.2-0.3-0.4-0.5-0.2c-0.2,0.1-0.3,0.4-0.1,0.6c0.2,0.2,0.6,0.4,0.6,0.4S17.6,16,17.6,15.8"/>
	<path class="st0" d="M15.7,16.4c-0.1-0.2-0.3-0.3-0.5-0.2c-0.2,0.1-0.2,0.4-0.1,0.6c0.2,0.2,0.6,0.4,0.6,0.4S15.8,16.6,15.7,16.4"
		/>
	<path class="st0" d="M22.9,15.1c-0.2-0.1-0.4,0.2-0.4,0.4c0,0.2,0.3,0.7,0.3,0.7s0.3-0.4,0.4-0.6C23.2,15.4,23.1,15.1,22.9,15.1"/>
	<path class="st0" d="M24.8,15.5c-0.2-0.1-0.5,0-0.5,0.2c-0.1,0.2,0.1,0.8,0.1,0.8s0.4-0.2,0.6-0.4C25.1,16,25.1,15.7,24.8,15.5"/>
	<path class="st0" d="M26.7,16.2c-0.2-0.1-0.5,0-0.5,0.2c-0.1,0.2,0,0.8,0,0.8s0.4-0.2,0.6-0.4C27,16.7,26.9,16.4,26.7,16.2"/>
	<path class="st0" d="M28.1,24c0-0.7,0-4.3,0-4.6c0,0,0-0.5-0.7-0.8c-0.7-0.3-1.9-0.8-2.9-1.1c-0.8-0.2-1.8-0.4-2.7-0.4
		c0,0-0.6,0-0.8,0c-0.2,0-0.8,0-0.8,0c-0.9,0.1-1.9,0.2-2.7,0.4c-1,0.3-2.2,0.8-2.9,1.1C14,19,14,19.4,14,19.4c0,0.3,0,3.9,0,4.6
		c0,0.7,0.1,2,0.1,2.2c0,0.2,0.3,0.6,0.4,0.9c0.2,0.3,1.8,2.5,2.4,3c0.6,0.5,1.1,1.3,2.1,1.5c0.1,0,0.2,0,0.2,0
		c0.6,0.1,1.4,0.1,1.9,0.1c0.5,0,1.3,0,1.9-0.1c0.1,0,0.2,0,0.2,0c1-0.1,1.5-1,2.1-1.5c0.6-0.5,2.2-2.8,2.4-3
		c0.2-0.3,0.4-0.6,0.4-0.9C28.1,26,28.1,24.7,28.1,24 M18.8,30.7c-0.4-0.1-0.6-0.4-1-0.8c-0.1-0.1-0.3-0.3-0.4-0.4
		c-0.5-0.4-2.1-2.6-2.3-2.9l0,0c-0.1-0.1-0.2-0.2-0.2-0.4c0-0.1,0-0.1,0-0.2c0-0.1,0-0.2,0-0.4c0-0.5-0.1-1.2,0-1.7
		c0-0.1,0-0.3,0-0.4c0-0.1,0.1-0.1,0.1,0c0.1,0.1,1.5,1.3,2,1.8c0.5,0.5,1.3,1.3,1.6,1.5c0.2,0.2,0.4,0.6,0.4,1
		c0,0.5,0.1,2.4,0.1,2.6C18.9,30.7,18.9,30.8,18.8,30.7 M21.8,24.8c-0.1,0.1-0.6,0.5-0.7,0.5c-0.1,0-0.6-0.4-0.7-0.5
		c-0.5-0.5-1.9-1.7-2.7-2.6h0c-0.9-1-2.2-2.2-2.6-2.6c-0.1-0.1,0-0.2,0.1-0.2c0.6-0.3,1.8-0.8,2.7-1c0.7-0.2,1.7-0.3,2.5-0.4
		c0,0,0.5,0,0.7,0c0.2,0,0.8,0,0.8,0c0.9,0.1,1.8,0.2,2.5,0.4c1,0.3,2.1,0.7,2.7,1c0.1,0,0.2,0.1,0.1,0.2c-0.4,0.3-1.7,1.6-2.6,2.6
		C23.7,23,22.3,24.3,21.8,24.8 M27.3,24.1c0,0.4,0,1.2,0,1.7c0,0.1,0,0.3,0,0.4c0,0.1,0,0.1,0,0.2c-0.1,0.1-0.2,0.3-0.2,0.4l0,0
		c-0.2,0.3-1.8,2.5-2.3,2.9c-0.1,0.1-0.3,0.3-0.4,0.4c-0.3,0.4-0.6,0.7-1,0.8c-0.1,0-0.1,0-0.1-0.1c0-0.2,0.1-2.2,0.1-2.6
		c0-0.5,0.2-0.9,0.4-1c0.2-0.2,1.1-1,1.6-1.5c0.5-0.5,1.9-1.8,2-1.8c0.1-0.1,0.1,0,0.1,0C27.3,23.7,27.3,24,27.3,24.1"/>
</g>
</svg>
